<?xml version="1.0" encoding="utf-8"?>
<!-- Generator: Adobe Illustrator 21.0.2, SVG Export Plug-In . SVG Version: 6.00 Build 0)  -->
<svg version="1.1" id="Capa_1" xmlns="http://www.w3.org/2000/svg" xmlns:xlink="http://www.w3.org/1999/xlink" x="0px" y="0px"
	 viewBox="0 0 23.3 23.3" style="enable-background:new 0 0 23.3 23.3;" xml:space="preserve">
<style type="text/css">
	.st0{fill:#FFFFFF;}
</style>
<path class="st0" d="M16,11.7l6.6-6.6c1-1,1-2.5,0-3.5l-0.9-0.9c-1-1-2.5-1-3.5,0l-6.6,6.6L5.1,0.7c-1-1-2.5-1-3.5,0L0.7,1.6
	c-1,1-1,2.5,0,3.5l6.6,6.6l-6.6,6.6c-1,1-1,2.5,0,3.5l0.9,0.9c1,1,2.5,1,3.5,0l6.6-6.6l6.6,6.6c1,1,2.5,1,3.5,0l0.9-0.9
	c1-1,1-2.5,0-3.5L16,11.7z"/>
</svg>
