<?xml version="1.0" encoding="utf-8"?>
<!-- Generator: Adobe Illustrator 21.0.2, SVG Export Plug-In . SVG Version: 6.00 Build 0)  -->
<svg version="1.1" id="Layer_1" xmlns="http://www.w3.org/2000/svg" xmlns:xlink="http://www.w3.org/1999/xlink" x="0px" y="0px"
	 viewBox="0 0 131 66" style="enable-background:new 0 0 131 66;" xml:space="preserve">
<style type="text/css">
	.st0{fill:url(#SVGID_1_);}
	.st1{fill:url(#SVGID_2_);}
	.st2{fill:url(#SVGID_3_);}
</style>
<g>
	<linearGradient id="SVGID_1_" gradientUnits="userSpaceOnUse" x1="-6.748" y1="32.4393" x2="41.6395" y2="32.4393">
		<stop  offset="0" style="stop-color:#FFFFFF"/>
		<stop  offset="1" style="stop-color:#26A69A"/>
	</linearGradient>
	<path class="st0" d="M48.7,55.9c0.6,0.7,1,1.6,1,2.8c0,1.1-0.5,2.1-1.5,2.8c-1,0.7-2.2,1.1-3.8,1.1h-0.2c-2.2,0-4.2-0.6-6-1.8
		c-1.8-1.2-3.2-2.9-4.1-5.1c-1-2.2-1.5-4.6-1.5-7.4l0-39c-0.1,0-4.2,0-6.9,0c-2.9,0-5.3,1.1-7.1,3c-1.8,1.9-2.7,4.4-2.7,7.6v2.1h6.3
		c1.1,0,2,0.3,2.6,0.9c0.7,0.6,1,1.4,1,2.5c0,0.9-0.3,1.7-1,2.3c-0.7,0.6-1.5,0.9-2.6,0.9h-6.3v30.1c0,1.1-0.4,2-1.1,2.8
		c-0.7,0.8-1.7,1.2-2.8,1.2c-1.1,0-2.1-0.4-2.8-1.2c-0.7-0.8-1.1-1.7-1.1-2.8V28.5H4.9c-1.1,0-2-0.3-2.6-0.9c-0.7-0.6-1-1.4-1-2.3
		c0-1,0.3-1.9,1-2.5c0.7-0.6,1.5-0.9,2.6-0.9h3.3v-1.3c0-3.4,0.7-6.5,2-9.3c1.3-2.8,3.3-5,5.8-6.6c2.6-1.6,5.7-2.4,9.4-2.4
		c2.4,0,9.9,0,11.1,0c1.1,0,2.1,0.4,2.8,1.1c0.7,0.7,1.1,1.6,1.1,2.8v42.1c0,1.9,0.4,3.5,1.1,4.7c0.7,1.2,1.6,1.9,2.8,1.9h1.9
		C47.2,54.9,48.1,55.2,48.7,55.9z"/>
	<linearGradient id="SVGID_2_" gradientUnits="userSpaceOnUse" x1="48.9804" y1="41.6232" x2="88.57" y2="41.6232">
		<stop  offset="0" style="stop-color:#FFFFFF"/>
		<stop  offset="1" style="stop-color:#26A69A"/>
	</linearGradient>
	<path class="st1" d="M87.5,21.4c0.7,0.7,1.1,1.7,1.1,2.9v34.4c0,1.1-0.4,2.1-1.1,2.8c-0.7,0.7-1.7,1.1-2.9,1.1
		c-1.1,0-2.1-0.4-2.8-1.1c-0.7-0.7-1.1-1.7-1.1-2.8v-0.8c-1.6,1.6-3.6,2.9-5.9,3.8c-2.3,0.9-4.7,1.4-7.3,1.4c-3.5,0-6.7-0.8-9.6-2.3
		c-2.8-1.5-5-3.8-6.6-6.8c-1.6-3-2.4-6.5-2.4-10.7v-19c0-1.1,0.4-2.1,1.1-2.8c0.7-0.7,1.7-1.1,2.8-1.1c1.1,0,2.1,0.4,2.8,1.1
		c0.7,0.7,1.1,1.7,1.1,2.8v19c0,4.2,1.1,7.3,3.4,9.5c2.2,2.1,5.2,3.2,8.9,3.2c2.2,0,4.1-0.4,5.9-1.3c1.8-0.9,3.2-2.1,4.2-3.5
		c1-1.5,1.5-3.2,1.5-5V24.2c0-1.2,0.4-2.1,1.1-2.9c0.7-0.7,1.7-1.1,2.8-1.1C85.8,20.3,86.8,20.6,87.5,21.4z"/>
	<linearGradient id="SVGID_3_" gradientUnits="userSpaceOnUse" x1="91.9273" y1="41.4687" x2="129.0478" y2="41.4687">
		<stop  offset="0" style="stop-color:#FFFFFF"/>
		<stop  offset="1" style="stop-color:#26A69A"/>
	</linearGradient>
	<path class="st2" d="M129,59.3c0,0.9-0.3,1.7-1,2.3c-0.6,0.6-1.5,0.9-2.5,0.9c-1.2,0-2.2-0.4-2.8-1.2l-12.3-14.7L98.9,61.3
		c-0.8,0.8-1.7,1.2-2.8,1.2c-1,0-1.8-0.3-2.4-0.9c-0.6-0.6-0.9-1.4-0.9-2.3c0-1,0.4-2,1.1-2.9l12-15l-12.7-15
		c-0.8-0.9-1.2-1.9-1.2-2.9c0-0.9,0.3-1.6,0.9-2.2c0.6-0.6,1.4-0.9,2.5-0.9c1.2,0,2.2,0.4,2.9,1.3l12.7,15.1l11.3-15.1
		c0.7-0.9,1.6-1.3,2.9-1.3c1,0,1.8,0.3,2.4,1c0.6,0.6,0.9,1.4,0.9,2.4c0,1.1-0.4,2.2-1.1,3.1L115.7,42L128,56.6
		C128.7,57.4,129,58.3,129,59.3z"/>
</g>
</svg>
